<?xml version="1.0" encoding="UTF-8"?>
<!-- Created with Inkscape (http://www.inkscape.org/) -->
<svg id="svg8" width="122.95mm" height="143.97mm" version="1.1" viewBox="0 0 122.95 143.97" xmlns="http://www.w3.org/2000/svg" xmlns:cc="http://creativecommons.org/ns#" xmlns:dc="http://purl.org/dc/elements/1.1/" xmlns:rdf="http://www.w3.org/1999/02/22-rdf-syntax-ns#">
 <title id="title893">stopwatch</title>
 <metadata id="metadata5">
  <rdf:RDF>
   <cc:Work rdf:about="">
    <dc:format>image/svg+xml</dc:format>
    <dc:type rdf:resource="http://purl.org/dc/dcmitype/StillImage"/>
    <dc:title>stopwatch</dc:title>
    <dc:date>2020-09-07</dc:date>
    <dc:creator>
     <cc:Agent>
      <dc:title>Lucas Hossack</dc:title>
     </cc:Agent>
    </dc:creator>
    <dc:rights>
     <cc:Agent>
      <dc:title>CC0 - Public Domain</dc:title>
     </cc:Agent>
    </dc:rights>
    <dc:description>Stopwatch clock icon</dc:description>
    <cc:license rdf:resource="http://creativecommons.org/publicdomain/zero/1.0/"/>
   </cc:Work>
   <cc:License rdf:about="http://creativecommons.org/publicdomain/zero/1.0/">
    <cc:permits rdf:resource="http://creativecommons.org/ns#Reproduction"/>
    <cc:permits rdf:resource="http://creativecommons.org/ns#Distribution"/>
    <cc:permits rdf:resource="http://creativecommons.org/ns#DerivativeWorks"/>
   </cc:License>
  </rdf:RDF>
 </metadata>
 <g id="layer1" transform="translate(-46.625 -36.86)">
  <circle id="path3713" cx="108.1" cy="119.35" r="60.476" stroke-width=".26458"/>
  <rect id="rect3715" x="87.65" y="43.229" width="40.902" height="21.27" stroke-width=".2427"/>
  <path id="path3719" d="m102.09 179.38c-13.762-1.9522-23.892-6.376-33.431-14.599-16.133-13.907-23.713-35.789-19.664-56.767 3.7073-19.211 16.831-35.788 34.574-43.672l3.0238-1.3436-0.09959-12.568-0.09959-12.568h40.454v24.071l2.7403 1.0619c19.792 7.6696 34.047 24.853 37.943 45.738 1.0579 5.6712 0.97788 16.296-0.16579 22.009-4.8402 24.176-23.589 42.985-47.599 47.75-3.9112 0.77628-14.657 1.3157-17.676 0.88737z" fill="none" stroke-width=".37798"/>
  <circle id="path114" cx="108.1" cy="119.35" r="48.381" fill="#fff" stroke-width=".26458"/>
  <rect id="rect3715-3" transform="rotate(45)" x="151.92" y="-59.083" width="22.766" height="9.4416" stroke-width=".12064"/>
  <path id="path8573" d="m106.46 114.11-1.5569-4.556 1.4683-10.628c0.80757-5.8455 1.4928-10.596 1.5228-10.556 0.03 0.03964 0.74876 4.9677 1.5974 10.951l1.5429 10.879-1.4752 4.1936c-0.81139 2.3065-1.4904 4.2113-1.5088 4.2329-0.0184 0.0216-0.73415-2.0109-1.5904-4.5167z" stroke-width=".18113"/>
  <path id="path8573-7" d="m113.38 121.5 5.3291 2.9354 8.5107 10.768c4.6809 5.9226 8.4625 10.758 8.4035 10.745-0.059-0.0129-5.0812-3.93-11.161-8.7046l-11.053-8.6812-2.6694-4.9376c-1.4682-2.7157-2.6738-4.9652-2.6792-4.999-5e-3 -0.0338 2.3883 1.2595 5.3192 2.8739z" stroke-width=".2139"/>
 </g>
</svg>
